<?xml version="1.0" encoding="utf-8"?>
<!-- Generator: Adobe Illustrator 26.0.3, SVG Export Plug-In . SVG Version: 6.00 Build 0)  -->
<svg id="Canceled" version="1.1" id="Layer_1" xmlns="http://www.w3.org/2000/svg" xmlns:xlink="http://www.w3.org/1999/xlink" x="0px" y="0px" viewBox="0 0 52.45 52.45" style="enable-background:new 0 0 52.45 52.45;" xml:space="preserve">
    <style type="text/css">
	.st0{fill:#5F6060;}
</style>
    <path class="st0" d="M26.22,0C11.76,0,0,11.76,0,26.23c0,14.46,11.76,26.22,26.22,26.22c14.46,0,26.23-11.76,26.23-26.22
	C52.45,11.76,40.69,0,26.22,0z M43.45,26.23c0,3.12-0.85,6.04-2.3,8.56L17.66,11.3C20.19,9.85,23.11,9,26.22,9
	C35.72,9,43.45,16.73,43.45,26.23z M9,26.23c0-3.12,0.85-6.04,2.3-8.56l23.49,23.49c-2.53,1.45-5.44,2.3-8.56,2.3
	C16.73,43.45,9,35.72,9,26.23z" />
</svg>