<?xml version="1.0" encoding="utf-8"?>
<!-- Generator: Adobe Illustrator 26.0.3, SVG Export Plug-In . SVG Version: 6.00 Build 0)  -->
<svg id="Scheduled" version="1.1" xmlns="http://www.w3.org/2000/svg" xmlns:xlink="http://www.w3.org/1999/xlink" x="0px" y="0px" viewBox="0 0 53.5 53.5" style="enable-background:new 0 0 53.5 53.5;" xml:space="preserve">
    <path class="st0" fill="#B2BC35" d="M53.5,26.8c0,14.8-12,26.8-26.8,26.8S0,41.5,0,26.8S12,0,26.8,0S53.5,12,53.5,26.8z M37.8,16.6
	c-2.7-3-6.7-4.8-11-4.8c-7.2,0-13.3,5.1-14.7,11.9h5.6c1.3-3.8,4.9-6.6,9.2-6.6c2.8,0,5.2,1.2,7,3l-4.1,3.6h6.2h5.6h0.3V13
	L37.8,16.6z M26.8,36.5c-3.3,0-6.2-1.7-8-4.2l4.1-3.6h-5.7h-5.4h-1v10.6l3.9-3.4c2.7,3.6,7.1,6,12,6c7.7,0,14-5.7,14.9-13.2h-5.4
	C35.4,33.1,31.5,36.5,26.8,36.5z" />
</svg>