<?xml version="1.0" encoding="UTF-8"?>
<svg width="24px" height="24px" viewBox="0 0 24 24" version="1.1" xmlns="http://www.w3.org/2000/svg" xmlns:xlink="http://www.w3.org/1999/xlink">
    <!-- Generator: Sketch 61.2 (89653) - https://sketch.com -->
    <title>X⚙️/⚙️status icon/ infomation circle</title>
    <desc>Created with Sketch.</desc>
    <g id="Bestille-tolketjeneste" stroke="none" stroke-width="1" fill="none" fill-rule="evenodd">
        <g id="Artboard" transform="translate(-56.000000, -49.000000)">
            <g id="X⚙️/⚙️status-icon/-infomation-circle" transform="translate(56.000000, 49.000000)">
                <g id="infomation-circle">
                    <path d="M12,0 C5.38226087,0 0,5.38226087 0,12 C0,18.6177391 5.38226087,24 12,24 C18.6166957,24 24,18.6177391 24,12 C24,5.38226087 18.6166957,0 12,0 Z" id="Shape" fill="#669DB4"></path>
                    <g id="Group" transform="translate(8.347826, 4.217391)" fill="#FFFFFF">
                        <g id="Group-2">
                            <path d="M3.65217391,0.782608696 C4.5146087,0.782608696 5.2173913,1.48382609 5.2173913,2.34782609 C5.2173913,3.2133913 4.5146087,3.91304348 3.65217391,3.91304348 C2.7866087,3.91304348 2.08695652,3.2133913 2.08695652,2.34782609 C2.08695652,1.48382609 2.7866087,0.782608696 3.65217391,0.782608696 Z" id="Path"></path>
                            <path d="M6.62777707,12.7926862 C7.19156217,12.7926862 7.67125533,13.2238146 7.67125533,13.7839906 C7.67125533,14.3441666 7.19156217,14.7752949 6.62777707,14.7752949 L1.04347826,14.7752949 C0.478869639,14.7752949 0,14.3443123 0,13.7839906 C0,13.2236689 0.478869639,12.7926862 1.04347826,12.7926862 L2.64279301,12.7926862 L2.64279301,7.7778291 L1.65698165,7.7778291 C1.09237303,7.7778291 0.613503392,7.34684643 0.613503392,6.78652475 C0.613503392,6.22620308 1.09237303,5.7952204 1.65698165,5.7952204 L3.68627127,5.7952204 C4.25005636,5.7952204 4.72974953,6.22634877 4.72974953,6.78652475 L4.72974953,12.7926862 L6.62777707,12.7926862 Z" id="Path" fill-rule="nonzero"></path>
                        </g>
                    </g>
                </g>
            </g>
        </g>
    </g>
</svg>