<?xml version="1.0" encoding="UTF-8"?>
<svg width="57px" height="58px" viewBox="0 0 57 58" version="1.1" xmlns="http://www.w3.org/2000/svg" xmlns:xlink="http://www.w3.org/1999/xlink">
    <!-- Generator: Sketch 61.2 (89653) - https://sketch.com -->
    <title>icon/ feedback/ check circle 2</title>
    <desc>Created with Sketch.</desc>
    <g id="Bestille-tolketjeneste" stroke="none" stroke-width="1" fill="none" fill-rule="evenodd">
        <g id="Lenkepaneler-Copy-13" transform="translate(-672.000000, -298.000000)">
            <g id="icon/-feedback/-check-circle-2" transform="translate(672.000000, 298.000000)">
                <g id="check-circle-2">
                    <path d="M28.5,0 C12.784625,0 0,12.8387692 0,28.6153846 C0,44.392 12.784625,57.2307692 28.5,57.2307692 C44.213,57.2307692 57,44.392 57,28.6153846 C57,12.8387692 44.213,0 28.5,0 Z" id="Shape" fill="#1C6937" fill-rule="nonzero"></path>
                    <path d="M22.8948377,34.4372577 L38.2370752,20.513214 C39.1685817,19.665943 40.633306,19.7104553 41.5064331,20.617945 C42.3799818,21.5258728 42.3299625,22.9503909 41.3966111,23.7996306 L24.4163563,39.2115035 C23.9840651,39.6012389 23.4203764,39.812709 22.8416079,39.812709 C22.2336488,39.812709 21.6491978,39.5822932 21.2052624,39.1549649 L15.546498,33.652006 C14.643921,32.77428 14.643921,31.3493506 15.546498,30.4716247 C16.449075,29.5938988 17.9143485,29.5938988 18.8169255,30.4716247 L22.8948377,34.4372577 Z" id="Path-Copy" fill="#FFFFFF" fill-rule="nonzero"></path>
                </g>
            </g>
        </g>
    </g>
</svg>