<?xml version="1.0" encoding="UTF-8"?>
<svg width="24px" height="24px" viewBox="0 0 24 24" version="1.1" xmlns="http://www.w3.org/2000/svg" xmlns:xlink="http://www.w3.org/1999/xlink">
    <!-- Generator: Sketch 61.2 (89653) - https://sketch.com -->
    <title>warning icon</title>
    <desc>Created with Sketch.</desc>
    <g id="Bestille-tolketjeneste" stroke="none" stroke-width="1" fill="none" fill-rule="evenodd">
        <g id="Artboard" transform="translate(-72.000000, -171.000000)">
            <g id="X⚙️/⚙️status-icon/-warning-circle" transform="translate(72.000000, 171.000000)">
                <path d="M12.2047909,-0.004 L11.990873,-0.00191299528 C8.77688569,0.054436132 5.75177235,1.35359657 3.47380671,3.65660627 C1.17914502,5.97631201 -0.0532312621,9.01290387 0.00207436285,12.2081081 C0.116859622,18.8207825 5.29784883,24.0007282 11.7967815,24.0007282 L12.0086125,23.9986412 C18.7350287,23.8828125 24.1142833,18.4044251 23.9984546,11.7896636 C23.8836693,5.17698921 18.7026801,-0.004 12.2047909,-0.004 Z" id="Shape" fill="#FFA733" fill-rule="nonzero"></path>
                <g id="Group" stroke-width="1" fill-rule="evenodd" transform="translate(10.500000, 5.000000)" fill="#3E3832">
                    <path d="M1.52716578,13.9998332 C1.51816628,13.9998332 1.50916678,13.9998332 1.50016728,13.9998332 C0.682712735,13.9998332 0.0137499352,13.3458695 0.000250685923,12.5269151 C-0.01474848,11.6989611 0.64521482,11.0149992 1.47316878,11.0014999 C1.48216828,11.0014999 1.49116778,11 1.50016728,11 C2.31762182,11 2.9850847,11.6554636 3.00008387,12.474418 C3.01508303,13.302372 2.35361982,13.984834 1.52716578,13.9998332 Z" id="Path"></path>
                    <path d="M1.5,0 C2.05228475,0 2.5,0.44771525 2.5,1 L2.5,8 C2.5,8.55228475 2.05228475,9 1.5,9 C0.94771525,9 0.5,8.55228475 0.5,8 L0.5,1 C0.5,0.44771525 0.94771525,0 1.5,0 Z" id="Rectangle" fill-rule="nonzero"></path>
                </g>
            </g>
        </g>
    </g>
</svg>